<mxfile host="app.diagrams.net" modified="2025-05-16T07:42:00.000Z" agent="Mozilla/5.0" etag="abc123" version="21.3.7">
  <diagram id="C5RBs43oDa-KdzZeNtuy" name="システムアーキテクチャ">
    <mxGraphModel dx="1223" dy="871" grid="1" gridSize="10" guides="1" tooltips="1" connect="1" arrows="1" fold="1" page="1" pageScale="1" pageWidth="827" pageHeight="1169" math="0" shadow="0">
      <root>
        <mxCell id="WIyWlLk6GJQsqaUBKTNV-0" />
        <mxCell id="WIyWlLk6GJQsqaUBKTNV-1" parent="WIyWlLk6GJQsqaUBKTNV-0" />
        
        <!-- Windows Host System -->
        <mxCell id="windows_host" value="Windows ホストシステム" style="rounded=1;whiteSpace=wrap;html=1;fontSize=16;fillColor=#dae8fc;strokeColor=#6c8ebf;verticalAlign=top;fontStyle=1" vertex="1" parent="WIyWlLk6GJQsqaUBKTNV-1">
          <mxGeometry x="40" y="40" width="520" height="400" as="geometry" />
        </mxCell>
        
        <!-- WSL Subsystem -->
        <mxCell id="wsl_subsystem" value="WSL (Windows Subsystem for Linux)" style="rounded=1;whiteSpace=wrap;html=1;fontSize=14;fillColor=#d5e8d4;strokeColor=#82b366;verticalAlign=top;fontStyle=1" vertex="1" parent="WIyWlLk6GJQsqaUBKTNV-1">
          <mxGeometry x="80" y="100" width="440" height="300" as="geometry" />
        </mxCell>
        
        <!-- FastAPI Application -->
        <mxCell id="fastapi_app" value="FastAPI アプリケーション" style="rounded=1;whiteSpace=wrap;html=1;fontSize=12;fillColor=#fff2cc;strokeColor=#d6b656;verticalAlign=top;fontStyle=1" vertex="1" parent="WIyWlLk6GJQsqaUBKTNV-1">
          <mxGeometry x="120" y="160" width="200" height="200" as="geometry" />
        </mxCell>
        
        <!-- FastAPI Components -->
        <mxCell id="fastapi_core" value="FastAPI コア" style="rounded=1;whiteSpace=wrap;html=1;fontSize=11;fillColor=#ffe6cc;strokeColor=#d79b00;" vertex="1" parent="WIyWlLk6GJQsqaUBKTNV-1">
          <mxGeometry x="140" y="200" width="160" height="40" as="geometry" />
        </mxCell>
        
        <mxCell id="auth_module" value="認証モジュール" style="rounded=1;whiteSpace=wrap;html=1;fontSize=11;fillColor=#ffe6cc;strokeColor=#d79b00;" vertex="1" parent="WIyWlLk6GJQsqaUBKTNV-1">
          <mxGeometry x="140" y="250" width="160" height="30" as="geometry" />
        </mxCell>
        
        <mxCell id="openai_client" value="OpenAI クライアント" style="rounded=1;whiteSpace=wrap;html=1;fontSize=11;fillColor=#ffe6cc;strokeColor=#d79b00;" vertex="1" parent="WIyWlLk6GJQsqaUBKTNV-1">
          <mxGeometry x="140" y="290" width="160" height="30" as="geometry" />
        </mxCell>
        
        <!-- Database -->
        <mxCell id="database" value="SQLite データベース" style="shape=cylinder3;whiteSpace=wrap;html=1;boundedLbl=1;backgroundOutline=1;size=15;fontSize=12;fillColor=#f8cecc;strokeColor=#b85450;" vertex="1" parent="WIyWlLk6GJQsqaUBKTNV-1">
          <mxGeometry x="380" y="200" width="100" height="120" as="geometry" />
        </mxCell>
        
        <!-- Azure Cloud -->
        <mxCell id="azure_cloud" value="Microsoft Azure" style="ellipse;shape=cloud;whiteSpace=wrap;html=1;fontSize=16;fillColor=#e1d5e7;strokeColor=#9673a6;verticalAlign=top;fontStyle=1" vertex="1" parent="WIyWlLk6GJQsqaUBKTNV-1">
          <mxGeometry x="600" y="120" width="240" height="200" as="geometry" />
        </mxCell>
        
        <!-- OpenAI Service -->
        <mxCell id="openai_service" value="Azure OpenAI Service" style="rounded=1;whiteSpace=wrap;html=1;fontSize=12;fillColor=#e1d5e7;strokeColor=#9673a6;" vertex="1" parent="WIyWlLk6GJQsqaUBKTNV-1">
          <mxGeometry x="650" y="200" width="140" height="60" as="geometry" />
        </mxCell>
        
        <!-- Client -->
        <mxCell id="client" value="クライアント" style="shape=umlActor;verticalLabelPosition=bottom;verticalAlign=top;html=1;outlineConnect=0;fontSize=12;" vertex="1" parent="WIyWlLk6GJQsqaUBKTNV-1">
          <mxGeometry x="40" y="500" width="30" height="60" as="geometry" />
        </mxCell>
        
        <!-- Connections -->
        <mxCell id="db_connection" value="" style="endArrow=classic;startArrow=classic;html=1;rounded=0;exitX=1;exitY=0.5;exitDx=0;exitDy=0;entryX=0;entryY=0.5;entryDx=0;entryDy=0;entryPerimeter=0;" edge="1" parent="WIyWlLk6GJQsqaUBKTNV-1" source="fastapi_app" target="database">
          <mxGeometry width="50" height="50" relative="1" as="geometry">
            <mxPoint x="390" y="450" as="sourcePoint" />
            <mxPoint x="440" y="400" as="targetPoint" />
          </mxGeometry>
        </mxCell>
        
        <mxCell id="azure_connection" value="" style="endArrow=classic;startArrow=classic;html=1;rounded=0;exitX=1;exitY=0.5;exitDx=0;exitDy=0;entryX=0;entryY=0.5;entryDx=0;entryDy=0;" edge="1" parent="WIyWlLk6GJQsqaUBKTNV-1" source="openai_client" target="openai_service">
          <mxGeometry width="50" height="50" relative="1" as="geometry">
            <mxPoint x="390" y="450" as="sourcePoint" />
            <mxPoint x="440" y="400" as="targetPoint" />
            <Array as="points">
              <mxPoint x="360" y="305" />
              <mxPoint x="360" y="360" />
              <mxPoint x="600" y="360" />
              <mxPoint x="600" y="230" />
            </Array>
          </mxGeometry>
        </mxCell>
        
        <mxCell id="client_connection" value="" style="endArrow=classic;startArrow=classic;html=1;rounded=0;entryX=0.25;entryY=1;entryDx=0;entryDy=0;" edge="1" parent="WIyWlLk6GJQsqaUBKTNV-1" source="client" target="fastapi_app">
          <mxGeometry width="50" height="50" relative="1" as="geometry">
            <mxPoint x="390" y="450" as="sourcePoint" />
            <mxPoint x="440" y="400" as="targetPoint" />
            <Array as="points">
              <mxPoint x="170" y="530" />
            </Array>
          </mxGeometry>
        </mxCell>
        
        <!-- Labels -->
        <mxCell id="db_label" value="SQLAlchemy ORM" style="text;html=1;strokeColor=none;fillColor=none;align=center;verticalAlign=middle;whiteSpace=wrap;rounded=0;fontSize=10;" vertex="1" parent="WIyWlLk6GJQsqaUBKTNV-1">
          <mxGeometry x="320" y="230" width="60" height="30" as="geometry" />
        </mxCell>
        
        <mxCell id="api_label" value="HTTPS / REST API" style="text;html=1;strokeColor=none;fillColor=none;align=center;verticalAlign=middle;whiteSpace=wrap;rounded=0;fontSize=10;" vertex="1" parent="WIyWlLk6GJQsqaUBKTNV-1">
          <mxGeometry x="450" y="330" width="100" height="30" as="geometry" />
        </mxCell>
        
        <mxCell id="client_label" value="HTTP / REST API" style="text;html=1;strokeColor=none;fillColor=none;align=center;verticalAlign=middle;whiteSpace=wrap;rounded=0;fontSize=10;" vertex="1" parent="WIyWlLk6GJQsqaUBKTNV-1">
          <mxGeometry x="100" y="500" width="100" height="30" as="geometry" />
        </mxCell>
        
        <!-- Legend -->
        <mxCell id="legend" value="凡例" style="swimlane;fontStyle=0;childLayout=stackLayout;horizontal=1;startSize=30;horizontalStack=0;resizeParent=1;resizeParentMax=0;resizeLast=0;collapsible=1;marginBottom=0;whiteSpace=wrap;html=1;fontSize=12;" vertex="1" parent="WIyWlLk6GJQsqaUBKTNV-1">
          <mxGeometry x="600" y="360" width="240" height="150" as="geometry" />
        </mxCell>
        
        <mxCell id="legend_1" value="Windows ホストシステム: 物理マシン" style="text;strokeColor=none;fillColor=none;align=left;verticalAlign=middle;spacingLeft=4;spacingRight=4;overflow=hidden;points=[[0,0.5],[1,0.5]];portConstraint=eastwest;rotatable=0;whiteSpace=wrap;html=1;fontSize=11;" vertex="1" parent="legend">
          <mxGeometry y="30" width="240" height="30" as="geometry" />
        </mxCell>
        
        <mxCell id="legend_2" value="WSL: Linux 仮想環境" style="text;strokeColor=none;fillColor=none;align=left;verticalAlign=middle;spacingLeft=4;spacingRight=4;overflow=hidden;points=[[0,0.5],[1,0.5]];portConstraint=eastwest;rotatable=0;whiteSpace=wrap;html=1;fontSize=11;" vertex="1" parent="legend">
          <mxGeometry y="60" width="240" height="30" as="geometry" />
        </mxCell>
        
        <mxCell id="legend_3" value="FastAPI: Python Webアプリケーションフレームワーク" style="text;strokeColor=none;fillColor=none;align=left;verticalAlign=middle;spacingLeft=4;spacingRight=4;overflow=hidden;points=[[0,0.5],[1,0.5]];portConstraint=eastwest;rotatable=0;whiteSpace=wrap;html=1;fontSize=11;" vertex="1" parent="legend">
          <mxGeometry y="90" width="240" height="30" as="geometry" />
        </mxCell>
        
        <mxCell id="legend_4" value="Azure OpenAI: マイクロソフトのAIサービス" style="text;strokeColor=none;fillColor=none;align=left;verticalAlign=middle;spacingLeft=4;spacingRight=4;overflow=hidden;points=[[0,0.5],[1,0.5]];portConstraint=eastwest;rotatable=0;whiteSpace=wrap;html=1;fontSize=11;" vertex="1" parent="legend">
          <mxGeometry y="120" width="240" height="30" as="geometry" />
        </mxCell>
        
        <!-- Title -->
        <mxCell id="title" value="EM_test_project システムアーキテクチャ図" style="text;html=1;strokeColor=none;fillColor=none;align=center;verticalAlign=middle;whiteSpace=wrap;rounded=0;fontSize=20;fontStyle=1" vertex="1" parent="WIyWlLk6GJQsqaUBKTNV-1">
          <mxGeometry x="160" y="10" width="400" height="30" as="geometry" />
        </mxCell>
        
      </root>
    </mxGraphModel>
  </diagram>
</mxfile>
